<svg width="5" height="12" viewBox="0 0 5 12" fill="none" xmlns="http://www.w3.org/2000/svg">
<path d="M4.69531 0.5625V12H3.25V2.36719L0.335938 3.42969V2.125L4.46875 0.5625H4.69531Z" fill="white"/>
<path d="M4.69531 0.5625H5.69531V-0.4375H4.69531V0.5625ZM4.69531 12V13H5.69531V12H4.69531ZM3.25 12H2.25V13H3.25V12ZM3.25 2.36719H4.25V0.938179L2.90745 1.42769L3.25 2.36719ZM0.335938 3.42969H-0.664062V4.8587L0.678489 4.36919L0.335938 3.42969ZM0.335938 2.125L-0.0177038 1.18962L-0.664062 1.43399V2.125H0.335938ZM4.46875 0.5625V-0.4375H4.28603L4.11511 -0.372881L4.46875 0.5625ZM3.69531 0.5625V12H5.69531V0.5625H3.69531ZM4.69531 11H3.25V13H4.69531V11ZM4.25 12V2.36719H2.25V12H4.25ZM2.90745 1.42769L-0.00661438 2.49019L0.678489 4.36919L3.59255 3.30669L2.90745 1.42769ZM1.33594 3.42969V2.125H-0.664062V3.42969H1.33594ZM0.689579 3.06038L4.82239 1.49788L4.11511 -0.372881L-0.0177038 1.18962L0.689579 3.06038ZM4.46875 1.5625H4.69531V-0.4375H4.46875V1.5625Z" fill="black"/>
</svg>
